<mxfile host="app.diagrams.net" modified="2020-04-20T03:54:42.180Z" agent="5.0 (Macintosh; Intel Mac OS X 10_15_4) AppleWebKit/537.36 (KHTML, like Gecko) Chrome/80.0.3987.163 Safari/537.36" etag="facCffHLbyCqTnu1y5WV" version="12.9.14" type="github">
  <diagram id="LpMn-EvCyoszVaJh1K58" name="第 1 页">
    <mxGraphModel dx="2646" dy="1130" grid="1" gridSize="10" guides="1" tooltips="1" connect="1" arrows="1" fold="1" page="1" pageScale="1" pageWidth="827" pageHeight="1169" math="0" shadow="0">
      <root>
        <mxCell id="0" />
        <mxCell id="1" parent="0" />
        <mxCell id="JfeXvmhw4_hOKBL46dwo-2" value="&lt;pre&gt;&lt;span style=&quot;font-family: &amp;#34;arial&amp;#34; ; font-size: 13px ; font-weight: 400 ; background-color: rgb(181 , 115 , 157)&quot;&gt;&lt;font color=&quot;#ffffff&quot;&gt;Load Balance&lt;/font&gt;&lt;/span&gt;&lt;/pre&gt;" style="outlineConnect=0;dashed=0;verticalLabelPosition=bottom;verticalAlign=top;align=center;html=1;shape=mxgraph.aws3.application_load_balancer;fillColor=#F58534;gradientColor=none;" parent="1" vertex="1">
          <mxGeometry x="-169" y="100" width="69" height="72" as="geometry" />
        </mxCell>
        <mxCell id="JfeXvmhw4_hOKBL46dwo-3" value="&lt;pre&gt;&lt;span style=&quot;font-family: &amp;#34;arial&amp;#34; ; font-size: 13px ; font-weight: 400 ; background-color: rgb(181 , 115 , 157)&quot;&gt;&lt;font color=&quot;#ffffff&quot;&gt;Load Balance&lt;/font&gt;&lt;/span&gt;&lt;/pre&gt;" style="outlineConnect=0;dashed=0;verticalLabelPosition=bottom;verticalAlign=top;align=center;html=1;shape=mxgraph.aws3.application_load_balancer;fillColor=#F58534;gradientColor=none;" parent="1" vertex="1">
          <mxGeometry x="-13" y="100" width="69" height="72" as="geometry" />
        </mxCell>
        <mxCell id="JfeXvmhw4_hOKBL46dwo-4" value="&lt;pre&gt;&lt;span style=&quot;font-family: &amp;#34;arial&amp;#34; ; font-size: 13px ; font-weight: 400 ; background-color: rgb(181 , 115 , 157)&quot;&gt;&lt;font color=&quot;#ffffff&quot;&gt;Load Balance&lt;/font&gt;&lt;/span&gt;&lt;/pre&gt;" style="outlineConnect=0;dashed=0;verticalLabelPosition=bottom;verticalAlign=top;align=center;html=1;shape=mxgraph.aws3.application_load_balancer;fillColor=#F58534;gradientColor=none;" parent="1" vertex="1">
          <mxGeometry x="141" y="100" width="69" height="72" as="geometry" />
        </mxCell>
        <mxCell id="JfeXvmhw4_hOKBL46dwo-16" value="&lt;h2&gt;API Cluster&lt;/h2&gt;" style="rounded=1;whiteSpace=wrap;html=1;fillColor=#ffe6cc;strokeColor=#d79b00;align=center;" parent="1" vertex="1">
          <mxGeometry x="-295" y="300" width="652" height="110" as="geometry" />
        </mxCell>
        <mxCell id="JfeXvmhw4_hOKBL46dwo-17" value="" style="html=1;dashed=0;whitespace=wrap;fillColor=#2875E2;strokeColor=#ffffff;points=[[0.005,0.63,0],[0.1,0.2,0],[0.9,0.2,0],[0.5,0,0],[0.995,0.63,0],[0.72,0.99,0],[0.5,1,0],[0.28,0.99,0]];shape=mxgraph.kubernetes.icon;prIcon=api" parent="1" vertex="1">
          <mxGeometry x="-283" y="310" width="141" height="90" as="geometry" />
        </mxCell>
        <mxCell id="JfeXvmhw4_hOKBL46dwo-18" value="" style="html=1;dashed=0;whitespace=wrap;fillColor=#2875E2;strokeColor=#ffffff;points=[[0.005,0.63,0],[0.1,0.2,0],[0.9,0.2,0],[0.5,0,0],[0.995,0.63,0],[0.72,0.99,0],[0.5,1,0],[0.28,0.99,0]];shape=mxgraph.kubernetes.icon;prIcon=api" parent="1" vertex="1">
          <mxGeometry x="-163" y="310" width="141" height="90" as="geometry" />
        </mxCell>
        <mxCell id="JfeXvmhw4_hOKBL46dwo-19" value="" style="html=1;dashed=0;whitespace=wrap;fillColor=#2875E2;strokeColor=#ffffff;points=[[0.005,0.63,0],[0.1,0.2,0],[0.9,0.2,0],[0.5,0,0],[0.995,0.63,0],[0.72,0.99,0],[0.5,1,0],[0.28,0.99,0]];shape=mxgraph.kubernetes.icon;prIcon=api" parent="1" vertex="1">
          <mxGeometry x="77" y="310" width="141" height="90" as="geometry" />
        </mxCell>
        <mxCell id="JfeXvmhw4_hOKBL46dwo-20" value="" style="html=1;dashed=0;whitespace=wrap;fillColor=#2875E2;strokeColor=#ffffff;points=[[0.005,0.63,0],[0.1,0.2,0],[0.9,0.2,0],[0.5,0,0],[0.995,0.63,0],[0.72,0.99,0],[0.5,1,0],[0.28,0.99,0]];shape=mxgraph.kubernetes.icon;prIcon=api" parent="1" vertex="1">
          <mxGeometry x="197" y="310" width="141" height="90" as="geometry" />
        </mxCell>
        <mxCell id="JfeXvmhw4_hOKBL46dwo-27" value="" style="endArrow=classic;html=1;" parent="1" edge="1">
          <mxGeometry width="50" height="50" relative="1" as="geometry">
            <mxPoint x="-133" y="170" as="sourcePoint" />
            <mxPoint x="-103" y="296" as="targetPoint" />
          </mxGeometry>
        </mxCell>
        <mxCell id="JfeXvmhw4_hOKBL46dwo-28" value="" style="endArrow=classic;html=1;entryX=0.128;entryY=-0.036;entryDx=0;entryDy=0;entryPerimeter=0;" parent="1" target="JfeXvmhw4_hOKBL46dwo-16" edge="1">
          <mxGeometry width="50" height="50" relative="1" as="geometry">
            <mxPoint x="-133.00320169957502" y="172" as="sourcePoint" />
            <mxPoint x="-103.34799999999984" y="296.03999999999996" as="targetPoint" />
          </mxGeometry>
        </mxCell>
        <mxCell id="JfeXvmhw4_hOKBL46dwo-29" value="" style="endArrow=classic;html=1;" parent="1" edge="1">
          <mxGeometry width="50" height="50" relative="1" as="geometry">
            <mxPoint x="-133" y="170" as="sourcePoint" />
            <mxPoint x="117" y="296" as="targetPoint" />
          </mxGeometry>
        </mxCell>
        <mxCell id="JfeXvmhw4_hOKBL46dwo-30" value="" style="endArrow=classic;html=1;" parent="1" edge="1">
          <mxGeometry width="50" height="50" relative="1" as="geometry">
            <mxPoint x="-133" y="170" as="sourcePoint" />
            <mxPoint x="237" y="298" as="targetPoint" />
          </mxGeometry>
        </mxCell>
        <mxCell id="JfeXvmhw4_hOKBL46dwo-31" value="" style="endArrow=classic;html=1;" parent="1" edge="1">
          <mxGeometry width="50" height="50" relative="1" as="geometry">
            <mxPoint x="19.100000000000023" y="172" as="sourcePoint" />
            <mxPoint x="-93" y="298" as="targetPoint" />
          </mxGeometry>
        </mxCell>
        <mxCell id="JfeXvmhw4_hOKBL46dwo-32" value="" style="endArrow=classic;html=1;entryX=0.158;entryY=-0.018;entryDx=0;entryDy=0;entryPerimeter=0;" parent="1" target="JfeXvmhw4_hOKBL46dwo-16" edge="1">
          <mxGeometry width="50" height="50" relative="1" as="geometry">
            <mxPoint x="19.096798300424894" y="174" as="sourcePoint" />
            <mxPoint x="-203" y="290" as="targetPoint" />
          </mxGeometry>
        </mxCell>
        <mxCell id="JfeXvmhw4_hOKBL46dwo-33" value="" style="endArrow=classic;html=1;" parent="1" edge="1">
          <mxGeometry width="50" height="50" relative="1" as="geometry">
            <mxPoint x="19.100000000000023" y="172" as="sourcePoint" />
            <mxPoint x="137" y="298" as="targetPoint" />
          </mxGeometry>
        </mxCell>
        <mxCell id="JfeXvmhw4_hOKBL46dwo-34" value="" style="endArrow=classic;html=1;" parent="1" edge="1">
          <mxGeometry width="50" height="50" relative="1" as="geometry">
            <mxPoint x="19.100000000000023" y="172" as="sourcePoint" />
            <mxPoint x="247" y="296" as="targetPoint" />
          </mxGeometry>
        </mxCell>
        <mxCell id="JfeXvmhw4_hOKBL46dwo-39" value="" style="endArrow=classic;html=1;" parent="1" edge="1">
          <mxGeometry width="50" height="50" relative="1" as="geometry">
            <mxPoint x="177.98000000000002" y="172" as="sourcePoint" />
            <mxPoint x="-73" y="298" as="targetPoint" />
          </mxGeometry>
        </mxCell>
        <mxCell id="JfeXvmhw4_hOKBL46dwo-40" value="" style="endArrow=classic;html=1;" parent="1" edge="1">
          <mxGeometry width="50" height="50" relative="1" as="geometry">
            <mxPoint x="177.9767983004249" y="174" as="sourcePoint" />
            <mxPoint x="-173" y="298" as="targetPoint" />
          </mxGeometry>
        </mxCell>
        <mxCell id="JfeXvmhw4_hOKBL46dwo-41" value="" style="endArrow=classic;html=1;" parent="1" edge="1">
          <mxGeometry width="50" height="50" relative="1" as="geometry">
            <mxPoint x="177.98000000000002" y="172" as="sourcePoint" />
            <mxPoint x="157" y="298" as="targetPoint" />
          </mxGeometry>
        </mxCell>
        <mxCell id="JfeXvmhw4_hOKBL46dwo-42" value="" style="endArrow=classic;html=1;" parent="1" edge="1">
          <mxGeometry width="50" height="50" relative="1" as="geometry">
            <mxPoint x="177.98000000000002" y="172" as="sourcePoint" />
            <mxPoint x="257" y="296" as="targetPoint" />
          </mxGeometry>
        </mxCell>
        <mxCell id="JfeXvmhw4_hOKBL46dwo-52" value="&lt;h2&gt;&lt;b&gt;DB Cluster&lt;/b&gt;&lt;/h2&gt;" style="shape=hexagon;perimeter=hexagonPerimeter2;whiteSpace=wrap;html=1;rounded=0;dashed=1;shadow=1;" parent="1" vertex="1">
          <mxGeometry x="-295" y="591.5" width="530" height="50" as="geometry" />
        </mxCell>
        <mxCell id="JfeXvmhw4_hOKBL46dwo-56" value="" style="aspect=fixed;perimeter=ellipsePerimeter;html=1;align=center;shadow=0;dashed=0;spacingTop=3;image;image=img/lib/active_directory/database.svg;rounded=1;" parent="1" vertex="1">
          <mxGeometry x="-135" y="613" width="50" height="37" as="geometry" />
        </mxCell>
        <mxCell id="JfeXvmhw4_hOKBL46dwo-57" value="" style="aspect=fixed;perimeter=ellipsePerimeter;html=1;align=center;shadow=0;dashed=0;spacingTop=3;image;image=img/lib/active_directory/database.svg;rounded=1;" parent="1" vertex="1">
          <mxGeometry x="-195" y="613" width="50" height="37" as="geometry" />
        </mxCell>
        <mxCell id="JfeXvmhw4_hOKBL46dwo-58" value="" style="aspect=fixed;perimeter=ellipsePerimeter;html=1;align=center;shadow=0;dashed=0;spacingTop=3;image;image=img/lib/active_directory/database.svg;rounded=1;" parent="1" vertex="1">
          <mxGeometry x="25" y="613" width="50" height="37" as="geometry" />
        </mxCell>
        <mxCell id="JfeXvmhw4_hOKBL46dwo-59" value="" style="aspect=fixed;perimeter=ellipsePerimeter;html=1;align=center;shadow=0;dashed=0;spacingTop=3;image;image=img/lib/active_directory/database.svg;rounded=1;" parent="1" vertex="1">
          <mxGeometry x="85" y="613" width="50" height="37" as="geometry" />
        </mxCell>
        <mxCell id="JfeXvmhw4_hOKBL46dwo-66" value="" style="shape=singleArrow;direction=south;whiteSpace=wrap;html=1;rounded=0;fillColor=#d5e8d4;strokeColor=#82b366;strokeWidth=1;shadow=1;comic=0;" parent="1" vertex="1">
          <mxGeometry x="-100" y="450" width="137" height="100" as="geometry" />
        </mxCell>
        <mxCell id="JfeXvmhw4_hOKBL46dwo-72" value="&lt;b&gt;&lt;font color=&quot;#ff66b3&quot;&gt;Redis&lt;br&gt;Cluster&lt;/font&gt;&lt;/b&gt;" style="rounded=0;whiteSpace=wrap;html=1;shadow=0;comic=0;strokeWidth=1;dashed=1;glass=0;fillColor=#d5e8d4;strokeColor=#82b366;" parent="1" vertex="1">
          <mxGeometry x="-413" y="300" width="90" height="350" as="geometry" />
        </mxCell>
        <mxCell id="JfeXvmhw4_hOKBL46dwo-74" value="" style="outlineConnect=0;dashed=0;verticalLabelPosition=bottom;verticalAlign=top;align=center;html=1;shape=mxgraph.aws3.redis;fillColor=#2E73B8;gradientColor=none;rounded=0;shadow=1;comic=0;strokeWidth=1;" parent="1" vertex="1">
          <mxGeometry x="-398" y="520" width="55" height="50" as="geometry" />
        </mxCell>
        <mxCell id="JfeXvmhw4_hOKBL46dwo-75" value="" style="outlineConnect=0;dashed=0;verticalLabelPosition=bottom;verticalAlign=top;align=center;html=1;shape=mxgraph.aws3.redis;fillColor=#2E73B8;gradientColor=none;rounded=0;shadow=1;comic=0;strokeWidth=1;" parent="1" vertex="1">
          <mxGeometry x="-398" y="580" width="55" height="50" as="geometry" />
        </mxCell>
        <mxCell id="JfeXvmhw4_hOKBL46dwo-76" value="" style="aspect=fixed;html=1;points=[];align=center;image;fontSize=12;image=img/lib/mscae/Cache_Redis_Product.svg;rounded=0;shadow=0;glass=0;dashed=1;comic=0;strokeWidth=1;" parent="1" vertex="1">
          <mxGeometry x="-393" y="388" width="50" height="42" as="geometry" />
        </mxCell>
        <mxCell id="JfeXvmhw4_hOKBL46dwo-77" value="" style="aspect=fixed;html=1;points=[];align=center;image;fontSize=12;image=img/lib/mscae/Cache_Redis_Product.svg;rounded=0;shadow=0;glass=0;dashed=1;comic=0;strokeWidth=1;" parent="1" vertex="1">
          <mxGeometry x="-393" y="320" width="50" height="42" as="geometry" />
        </mxCell>
        <mxCell id="JfeXvmhw4_hOKBL46dwo-79" value="" style="aspect=fixed;html=1;points=[];align=center;image;fontSize=12;image=img/lib/mscae/Docker.svg;rounded=0;shadow=0;glass=0;dashed=1;comic=0;strokeWidth=1;" parent="1" vertex="1">
          <mxGeometry x="6" y="368" width="46.34" height="38" as="geometry" />
        </mxCell>
        <mxCell id="60jI8FrR0yOValHAUIX--1" value="" style="shape=image;html=1;verticalAlign=top;verticalLabelPosition=bottom;labelBackgroundColor=#ffffff;imageAspect=0;aspect=fixed;image=https://cdn4.iconfinder.com/data/icons/logos-brands-5/24/mysql-128.png;rounded=0;shadow=0;glass=0;dashed=1;comic=0;strokeWidth=1;" vertex="1" parent="1">
          <mxGeometry x="155" y="570" width="55" height="55" as="geometry" />
        </mxCell>
      </root>
    </mxGraphModel>
  </diagram>
</mxfile>
